<mxfile host="app.diagrams.net" modified="2023-12-31T03:52:22.569Z" agent="Mozilla/5.0 (Windows NT 10.0; Win64; x64) AppleWebKit/537.36 (KHTML, like Gecko) Chrome/120.0.0.0 Safari/537.36" etag="_53rfzeYWgbzaeqp4lED" version="22.1.16" type="device">
  <diagram name="Page-1" id="sTLAMJMNHMfNNX3CN_xu">
    <mxGraphModel dx="794" dy="1512" grid="1" gridSize="10" guides="1" tooltips="1" connect="1" arrows="1" fold="1" page="1" pageScale="1" pageWidth="850" pageHeight="1100" math="0" shadow="0">
      <root>
        <mxCell id="0" />
        <mxCell id="1" parent="0" />
        <mxCell id="CRdkFB1iniQtbO10i1_w-1" value="&lt;span style=&quot;font-weight: normal;&quot;&gt;&amp;lt;&amp;lt;enum&amp;gt;&amp;gt;&lt;br&gt;&lt;/span&gt;TipoVehiculo" style="swimlane;fontStyle=1;align=center;verticalAlign=top;childLayout=stackLayout;horizontal=1;startSize=43;horizontalStack=0;resizeParent=1;resizeParentMax=0;resizeLast=0;collapsible=1;marginBottom=0;whiteSpace=wrap;html=1;" parent="1" vertex="1">
          <mxGeometry x="40" y="363" width="130" height="130" as="geometry">
            <mxRectangle x="50" y="190" width="110" height="40" as="alternateBounds" />
          </mxGeometry>
        </mxCell>
        <mxCell id="CRdkFB1iniQtbO10i1_w-4" value="COCHE&lt;br&gt;FURGONETA&lt;br&gt;MICROBUS&lt;br&gt;CAMION&lt;br&gt;RES" style="text;strokeColor=none;fillColor=none;align=left;verticalAlign=top;spacingLeft=4;spacingRight=4;overflow=hidden;rotatable=0;points=[[0,0.5],[1,0.5]];portConstraint=eastwest;whiteSpace=wrap;html=1;" parent="CRdkFB1iniQtbO10i1_w-1" vertex="1">
          <mxGeometry y="43" width="130" height="87" as="geometry" />
        </mxCell>
        <mxCell id="CRdkFB1iniQtbO10i1_w-9" value="Fase" style="swimlane;fontStyle=1;align=center;verticalAlign=top;childLayout=stackLayout;horizontal=1;startSize=26;horizontalStack=0;resizeParent=1;resizeParentMax=0;resizeLast=0;collapsible=1;marginBottom=0;whiteSpace=wrap;html=1;" parent="1" vertex="1">
          <mxGeometry x="605" y="620" width="250" height="180" as="geometry" />
        </mxCell>
        <mxCell id="CRdkFB1iniQtbO10i1_w-10" value="&lt;span style=&quot;border-color: var(--border-color);&quot;&gt;&lt;font style=&quot;&quot; face=&quot;Helvetica&quot;&gt;-vehiculo:Vehiculo&lt;br&gt;&lt;u&gt;+FASES:String[]&lt;/u&gt;&lt;/font&gt;&lt;/span&gt;&lt;u style=&quot;border-color: var(--border-color);&quot;&gt;&lt;code style=&quot;border-color: var(--border-color);&quot;&gt;&lt;font face=&quot;bYV2tNlRSzrgiPoBlCbC&quot;&gt;&amp;nbsp;&lt;/font&gt;&lt;font face=&quot;Helvetica&quot;&gt;{readOnly}&lt;/font&gt;&lt;br&gt;&lt;/code&gt;&lt;/u&gt;" style="text;strokeColor=none;fillColor=none;align=left;verticalAlign=top;spacingLeft=4;spacingRight=4;overflow=hidden;rotatable=0;points=[[0,0.5],[1,0.5]];portConstraint=eastwest;whiteSpace=wrap;html=1;" parent="CRdkFB1iniQtbO10i1_w-9" vertex="1">
          <mxGeometry y="26" width="250" height="44" as="geometry" />
        </mxCell>
        <mxCell id="CRdkFB1iniQtbO10i1_w-11" value="" style="line;strokeWidth=1;fillColor=none;align=left;verticalAlign=middle;spacingTop=-1;spacingLeft=3;spacingRight=3;rotatable=0;labelPosition=right;points=[];portConstraint=eastwest;strokeColor=inherit;" parent="CRdkFB1iniQtbO10i1_w-9" vertex="1">
          <mxGeometry y="70" width="250" height="10" as="geometry" />
        </mxCell>
        <mxCell id="CRdkFB1iniQtbO10i1_w-12" value="+Fase()&lt;br&gt;+getVehiculo():Vehiculo&lt;br&gt;+setVehiculo(Vehiculo vehiculo):void&lt;br&gt;+disponible():boolean" style="text;strokeColor=none;fillColor=none;align=left;verticalAlign=top;spacingLeft=4;spacingRight=4;overflow=hidden;rotatable=0;points=[[0,0.5],[1,0.5]];portConstraint=eastwest;whiteSpace=wrap;html=1;" parent="CRdkFB1iniQtbO10i1_w-9" vertex="1">
          <mxGeometry y="80" width="250" height="100" as="geometry" />
        </mxCell>
        <mxCell id="CRdkFB1iniQtbO10i1_w-15" value="" style="endArrow=open;html=1;endSize=12;startArrow=diamondThin;startSize=14;startFill=1;edgeStyle=orthogonalEdgeStyle;align=left;verticalAlign=bottom;rounded=0;entryX=0.5;entryY=0;entryDx=0;entryDy=0;exitX=0.5;exitY=1;exitDx=0;exitDy=0;exitPerimeter=0;" parent="1" source="CRdkFB1iniQtbO10i1_w-26" target="CRdkFB1iniQtbO10i1_w-9" edge="1">
          <mxGeometry x="-1" y="3" relative="1" as="geometry">
            <mxPoint x="705" y="486" as="sourcePoint" />
            <mxPoint x="704" y="530" as="targetPoint" />
          </mxGeometry>
        </mxCell>
        <mxCell id="CRdkFB1iniQtbO10i1_w-17" value="Cola" style="swimlane;fontStyle=1;align=center;verticalAlign=top;childLayout=stackLayout;horizontal=1;startSize=26;horizontalStack=0;resizeParent=1;resizeParentMax=0;resizeLast=0;collapsible=1;marginBottom=0;whiteSpace=wrap;html=1;" parent="1" vertex="1">
          <mxGeometry x="260" y="40" width="240" height="142" as="geometry" />
        </mxCell>
        <mxCell id="CRdkFB1iniQtbO10i1_w-18" value="+cola:Vehiculo[]&lt;u&gt;&lt;br&gt;-MAX_LONGITUD_COLA:int&lt;/u&gt;" style="text;strokeColor=none;fillColor=none;align=left;verticalAlign=top;spacingLeft=4;spacingRight=4;overflow=hidden;rotatable=0;points=[[0,0.5],[1,0.5]];portConstraint=eastwest;whiteSpace=wrap;html=1;" parent="CRdkFB1iniQtbO10i1_w-17" vertex="1">
          <mxGeometry y="26" width="240" height="44" as="geometry" />
        </mxCell>
        <mxCell id="CRdkFB1iniQtbO10i1_w-19" value="" style="line;strokeWidth=1;fillColor=none;align=left;verticalAlign=middle;spacingTop=-1;spacingLeft=3;spacingRight=3;rotatable=0;labelPosition=right;points=[];portConstraint=eastwest;strokeColor=inherit;" parent="CRdkFB1iniQtbO10i1_w-17" vertex="1">
          <mxGeometry y="70" width="240" height="10" as="geometry" />
        </mxCell>
        <mxCell id="CRdkFB1iniQtbO10i1_w-20" value="+getVehiculos():Vehiculo[]&lt;br&gt;+mostrarVehiculos():void&lt;br&gt;+vehiculoDejaColaYEntraBox():void" style="text;strokeColor=none;fillColor=none;align=left;verticalAlign=top;spacingLeft=4;spacingRight=4;overflow=hidden;rotatable=0;points=[[0,0.5],[1,0.5]];portConstraint=eastwest;whiteSpace=wrap;html=1;" parent="CRdkFB1iniQtbO10i1_w-17" vertex="1">
          <mxGeometry y="80" width="240" height="62" as="geometry" />
        </mxCell>
        <mxCell id="CRdkFB1iniQtbO10i1_w-23" value="Box" style="swimlane;fontStyle=1;align=center;verticalAlign=top;childLayout=stackLayout;horizontal=1;startSize=26;horizontalStack=0;resizeParent=1;resizeParentMax=0;resizeLast=0;collapsible=1;marginBottom=0;whiteSpace=wrap;html=1;" parent="1" vertex="1">
          <mxGeometry x="625" y="320" width="210" height="150" as="geometry" />
        </mxCell>
        <mxCell id="CRdkFB1iniQtbO10i1_w-24" value="&lt;u&gt;+NUMERO_BOXES:int {readOnly}&lt;/u&gt;" style="text;strokeColor=none;fillColor=none;align=left;verticalAlign=top;spacingLeft=4;spacingRight=4;overflow=hidden;rotatable=0;points=[[0,0.5],[1,0.5]];portConstraint=eastwest;whiteSpace=wrap;html=1;" parent="CRdkFB1iniQtbO10i1_w-23" vertex="1">
          <mxGeometry y="26" width="210" height="34" as="geometry" />
        </mxCell>
        <mxCell id="CRdkFB1iniQtbO10i1_w-25" value="" style="line;strokeWidth=1;fillColor=none;align=left;verticalAlign=middle;spacingTop=-1;spacingLeft=3;spacingRight=3;rotatable=0;labelPosition=right;points=[];portConstraint=eastwest;strokeColor=inherit;" parent="CRdkFB1iniQtbO10i1_w-23" vertex="1">
          <mxGeometry y="60" width="210" height="8" as="geometry" />
        </mxCell>
        <mxCell id="CRdkFB1iniQtbO10i1_w-26" value="+Box()" style="text;strokeColor=none;fillColor=none;align=left;verticalAlign=top;spacingLeft=4;spacingRight=4;overflow=hidden;rotatable=0;points=[[0,0.5],[1,0.5]];portConstraint=eastwest;whiteSpace=wrap;html=1;" parent="CRdkFB1iniQtbO10i1_w-23" vertex="1">
          <mxGeometry y="68" width="210" height="82" as="geometry" />
        </mxCell>
        <mxCell id="CRdkFB1iniQtbO10i1_w-27" value="Vehiculo" style="swimlane;fontStyle=1;align=center;verticalAlign=top;childLayout=stackLayout;horizontal=1;startSize=26;horizontalStack=0;resizeParent=1;resizeParentMax=0;resizeLast=0;collapsible=1;marginBottom=0;whiteSpace=wrap;html=1;" parent="1" vertex="1">
          <mxGeometry x="290" y="320" width="180" height="160" as="geometry" />
        </mxCell>
        <mxCell id="CRdkFB1iniQtbO10i1_w-28" value="-matricula:String&lt;br&gt;-modelo:String&lt;br&gt;-tipoVehiculo:TipoVehiculo" style="text;strokeColor=none;fillColor=none;align=left;verticalAlign=top;spacingLeft=4;spacingRight=4;overflow=hidden;rotatable=0;points=[[0,0.5],[1,0.5]];portConstraint=eastwest;whiteSpace=wrap;html=1;" parent="CRdkFB1iniQtbO10i1_w-27" vertex="1">
          <mxGeometry y="26" width="180" height="64" as="geometry" />
        </mxCell>
        <mxCell id="CRdkFB1iniQtbO10i1_w-29" value="" style="line;strokeWidth=1;fillColor=none;align=left;verticalAlign=middle;spacingTop=-1;spacingLeft=3;spacingRight=3;rotatable=0;labelPosition=right;points=[];portConstraint=eastwest;strokeColor=inherit;" parent="CRdkFB1iniQtbO10i1_w-27" vertex="1">
          <mxGeometry y="90" width="180" height="8" as="geometry" />
        </mxCell>
        <mxCell id="CRdkFB1iniQtbO10i1_w-30" value="+vehiculoValido():Vehiculo&lt;br&gt;+mostrarVehiculo():void" style="text;strokeColor=none;fillColor=none;align=left;verticalAlign=top;spacingLeft=4;spacingRight=4;overflow=hidden;rotatable=0;points=[[0,0.5],[1,0.5]];portConstraint=eastwest;whiteSpace=wrap;html=1;" parent="CRdkFB1iniQtbO10i1_w-27" vertex="1">
          <mxGeometry y="98" width="180" height="62" as="geometry" />
        </mxCell>
        <mxCell id="CRdkFB1iniQtbO10i1_w-33" value="" style="endArrow=open;html=1;endSize=12;startArrow=diamondThin;startSize=14;startFill=1;edgeStyle=orthogonalEdgeStyle;align=left;verticalAlign=bottom;rounded=0;entryX=0.5;entryY=0;entryDx=0;entryDy=0;exitX=0.502;exitY=1.006;exitDx=0;exitDy=0;exitPerimeter=0;" parent="1" source="CRdkFB1iniQtbO10i1_w-20" target="CRdkFB1iniQtbO10i1_w-27" edge="1">
          <mxGeometry x="-1" y="3" relative="1" as="geometry">
            <mxPoint x="380" y="220" as="sourcePoint" />
            <mxPoint x="380" y="350" as="targetPoint" />
          </mxGeometry>
        </mxCell>
        <mxCell id="CRdkFB1iniQtbO10i1_w-34" value="" style="endArrow=open;html=1;endSize=12;startArrow=diamondThin;startSize=14;startFill=1;edgeStyle=orthogonalEdgeStyle;align=left;verticalAlign=bottom;rounded=0;entryX=0.5;entryY=0;entryDx=0;entryDy=0;exitX=0.5;exitY=1;exitDx=0;exitDy=0;exitPerimeter=0;" parent="1" target="CRdkFB1iniQtbO10i1_w-23" edge="1" source="jXtiLCyHxi5xTeZDXRqE-7">
          <mxGeometry x="-1" y="3" relative="1" as="geometry">
            <mxPoint x="715" y="140" as="sourcePoint" />
            <mxPoint x="705" y="320" as="targetPoint" />
          </mxGeometry>
        </mxCell>
        <mxCell id="CRdkFB1iniQtbO10i1_w-35" value="" style="endArrow=open;endFill=1;endSize=12;html=1;rounded=0;exitX=0;exitY=0.5;exitDx=0;exitDy=0;entryX=1;entryY=0.5;entryDx=0;entryDy=0;" parent="1" source="CRdkFB1iniQtbO10i1_w-30" target="CRdkFB1iniQtbO10i1_w-4" edge="1">
          <mxGeometry width="160" relative="1" as="geometry">
            <mxPoint x="280" y="380" as="sourcePoint" />
            <mxPoint x="170" y="380" as="targetPoint" />
          </mxGeometry>
        </mxCell>
        <mxCell id="CRdkFB1iniQtbO10i1_w-36" value="" style="endArrow=open;html=1;endSize=12;startArrow=diamondThin;startSize=14;startFill=0;edgeStyle=orthogonalEdgeStyle;align=left;verticalAlign=bottom;rounded=0;entryX=0.508;entryY=1.019;entryDx=0;entryDy=0;entryPerimeter=0;" parent="1" edge="1">
          <mxGeometry x="-1" y="3" relative="1" as="geometry">
            <mxPoint x="590" y="690" as="sourcePoint" />
            <mxPoint x="380.0400000000001" y="479.9979999999999" as="targetPoint" />
            <Array as="points">
              <mxPoint x="379.6" y="690.82" />
            </Array>
          </mxGeometry>
        </mxCell>
        <mxCell id="CRdkFB1iniQtbO10i1_w-37" value="-boxes:Box[]" style="text;html=1;strokeColor=none;fillColor=none;align=center;verticalAlign=middle;whiteSpace=wrap;rounded=0;" parent="1" vertex="1">
          <mxGeometry x="735" y="230" width="70" height="30" as="geometry" />
        </mxCell>
        <mxCell id="CRdkFB1iniQtbO10i1_w-38" value="6" style="text;html=1;strokeColor=none;fillColor=none;align=center;verticalAlign=middle;whiteSpace=wrap;rounded=0;" parent="1" vertex="1">
          <mxGeometry x="720" y="290" width="20" height="30" as="geometry" />
        </mxCell>
        <mxCell id="CRdkFB1iniQtbO10i1_w-39" value="-vehiculo:Vehiculo" style="text;html=1;strokeColor=none;fillColor=none;align=center;verticalAlign=middle;whiteSpace=wrap;rounded=0;" parent="1" vertex="1">
          <mxGeometry x="380" y="580" width="110" height="30" as="geometry" />
        </mxCell>
        <mxCell id="CRdkFB1iniQtbO10i1_w-40" value="0...1" style="text;html=1;strokeColor=none;fillColor=none;align=center;verticalAlign=middle;whiteSpace=wrap;rounded=0;" parent="1" vertex="1">
          <mxGeometry x="390" y="490" width="30" height="29" as="geometry" />
        </mxCell>
        <mxCell id="CRdkFB1iniQtbO10i1_w-41" value="-fases:Fase[]" style="text;html=1;strokeColor=none;fillColor=none;align=center;verticalAlign=middle;whiteSpace=wrap;rounded=0;" parent="1" vertex="1">
          <mxGeometry x="728" y="540" width="86" height="30" as="geometry" />
        </mxCell>
        <mxCell id="CRdkFB1iniQtbO10i1_w-42" value="4" style="text;html=1;strokeColor=none;fillColor=none;align=center;verticalAlign=middle;whiteSpace=wrap;rounded=0;" parent="1" vertex="1">
          <mxGeometry x="700" y="590" width="70" height="30" as="geometry" />
        </mxCell>
        <mxCell id="CRdkFB1iniQtbO10i1_w-44" value="Menu" style="swimlane;fontStyle=1;align=center;verticalAlign=top;childLayout=stackLayout;horizontal=1;startSize=26;horizontalStack=0;resizeParent=1;resizeParentMax=0;resizeLast=0;collapsible=1;marginBottom=0;whiteSpace=wrap;html=1;" parent="1" vertex="1">
          <mxGeometry x="620" y="-410" width="190" height="182" as="geometry" />
        </mxCell>
        <mxCell id="CRdkFB1iniQtbO10i1_w-45" value="-gestorIO:GestorIO&lt;br&gt;-interval:Interval&lt;br&gt;&lt;u&gt;-OPCIONES:String[]&lt;/u&gt;" style="text;strokeColor=none;fillColor=none;align=left;verticalAlign=top;spacingLeft=4;spacingRight=4;overflow=hidden;rotatable=0;points=[[0,0.5],[1,0.5]];portConstraint=eastwest;whiteSpace=wrap;html=1;" parent="CRdkFB1iniQtbO10i1_w-44" vertex="1">
          <mxGeometry y="26" width="190" height="54" as="geometry" />
        </mxCell>
        <mxCell id="CRdkFB1iniQtbO10i1_w-46" value="" style="line;strokeWidth=1;fillColor=none;align=left;verticalAlign=middle;spacingTop=-1;spacingLeft=3;spacingRight=3;rotatable=0;labelPosition=right;points=[];portConstraint=eastwest;strokeColor=inherit;" parent="CRdkFB1iniQtbO10i1_w-44" vertex="1">
          <mxGeometry y="80" width="190" height="10" as="geometry" />
        </mxCell>
        <mxCell id="CRdkFB1iniQtbO10i1_w-47" value="-mostrar():void&lt;br&gt;+opcionElegida():int" style="text;strokeColor=none;fillColor=none;align=left;verticalAlign=top;spacingLeft=4;spacingRight=4;overflow=hidden;rotatable=0;points=[[0,0.5],[1,0.5]];portConstraint=eastwest;whiteSpace=wrap;html=1;" parent="CRdkFB1iniQtbO10i1_w-44" vertex="1">
          <mxGeometry y="90" width="190" height="92" as="geometry" />
        </mxCell>
        <mxCell id="CRdkFB1iniQtbO10i1_w-49" value="" style="endArrow=open;endFill=1;endSize=12;html=1;rounded=0;exitX=0.5;exitY=0;exitDx=0;exitDy=0;entryX=0.5;entryY=1.006;entryDx=0;entryDy=0;entryPerimeter=0;" parent="1" source="jXtiLCyHxi5xTeZDXRqE-4" target="CRdkFB1iniQtbO10i1_w-47" edge="1">
          <mxGeometry width="160" relative="1" as="geometry">
            <mxPoint x="715" y="-10" as="sourcePoint" />
            <mxPoint x="650" y="-79" as="targetPoint" />
          </mxGeometry>
        </mxCell>
        <mxCell id="jXtiLCyHxi5xTeZDXRqE-1" value="-cola:Cola[]" style="text;html=1;strokeColor=none;fillColor=none;align=center;verticalAlign=middle;whiteSpace=wrap;rounded=0;" parent="1" vertex="1">
          <mxGeometry x="526" y="35" width="70" height="30" as="geometry" />
        </mxCell>
        <mxCell id="jXtiLCyHxi5xTeZDXRqE-2" value="1" style="text;html=1;strokeColor=none;fillColor=none;align=center;verticalAlign=middle;whiteSpace=wrap;rounded=0;" parent="1" vertex="1">
          <mxGeometry x="503" y="102" width="21" height="30" as="geometry" />
        </mxCell>
        <mxCell id="jXtiLCyHxi5xTeZDXRqE-4" value="Taller" style="swimlane;fontStyle=1;align=center;verticalAlign=top;childLayout=stackLayout;horizontal=1;startSize=26;horizontalStack=0;resizeParent=1;resizeParentMax=0;resizeLast=0;collapsible=1;marginBottom=0;whiteSpace=wrap;html=1;" parent="1" vertex="1">
          <mxGeometry x="620" y="-100" width="220" height="240" as="geometry" />
        </mxCell>
        <mxCell id="jXtiLCyHxi5xTeZDXRqE-5" value="-todosLosVehiculos:Vehiculo[]&lt;br&gt;&lt;u&gt;+NUMERO_BOXES:int&lt;/u&gt;&lt;span style=&quot;border-color: var(--border-color);&quot;&gt;&lt;u&gt;&amp;nbsp;{readOnly}&lt;/u&gt;&lt;br&gt;-todosLosVehiculos:Vehiculo[]&lt;br&gt;-gestorIO:GestorIO&lt;br&gt;&lt;/span&gt;" style="text;strokeColor=none;fillColor=none;align=left;verticalAlign=top;spacingLeft=4;spacingRight=4;overflow=hidden;rotatable=0;points=[[0,0.5],[1,0.5]];portConstraint=eastwest;whiteSpace=wrap;html=1;" parent="jXtiLCyHxi5xTeZDXRqE-4" vertex="1">
          <mxGeometry y="26" width="220" height="74" as="geometry" />
        </mxCell>
        <mxCell id="jXtiLCyHxi5xTeZDXRqE-6" value="" style="line;strokeWidth=1;fillColor=none;align=left;verticalAlign=middle;spacingTop=-1;spacingLeft=3;spacingRight=3;rotatable=0;labelPosition=right;points=[];portConstraint=eastwest;strokeColor=inherit;" parent="jXtiLCyHxi5xTeZDXRqE-4" vertex="1">
          <mxGeometry y="100" width="220" height="10" as="geometry" />
        </mxCell>
        <mxCell id="jXtiLCyHxi5xTeZDXRqE-7" value="+Taller()&lt;br style=&quot;border-color: var(--border-color);&quot;&gt;+main(String[] args):void&lt;br style=&quot;border-color: var(--border-color);&quot;&gt;-iniciar():String&lt;br&gt;-impresionNumerosBoxes():void&lt;br&gt;-numeroValidoBox():int" style="text;strokeColor=none;fillColor=none;align=left;verticalAlign=top;spacingLeft=4;spacingRight=4;overflow=hidden;rotatable=0;points=[[0,0.5],[1,0.5]];portConstraint=eastwest;whiteSpace=wrap;html=1;" parent="jXtiLCyHxi5xTeZDXRqE-4" vertex="1">
          <mxGeometry y="110" width="220" height="130" as="geometry" />
        </mxCell>
        <mxCell id="jXtiLCyHxi5xTeZDXRqE-9" value="" style="endArrow=diamondThin;endFill=0;endSize=24;html=1;rounded=0;edgeStyle=orthogonalEdgeStyle;exitX=1.003;exitY=0.176;exitDx=0;exitDy=0;exitPerimeter=0;" parent="1" source="CRdkFB1iniQtbO10i1_w-20" target="jXtiLCyHxi5xTeZDXRqE-7" edge="1">
          <mxGeometry width="160" relative="1" as="geometry">
            <mxPoint x="440" y="20" as="sourcePoint" />
            <mxPoint x="600" y="20" as="targetPoint" />
            <Array as="points">
              <mxPoint x="530" y="131" />
              <mxPoint x="530" y="63" />
            </Array>
          </mxGeometry>
        </mxCell>
        <mxCell id="1shn9VDw4JENuhAmSEe9-1" style="edgeStyle=orthogonalEdgeStyle;rounded=0;orthogonalLoop=1;jettySize=auto;html=1;exitX=1;exitY=0.5;exitDx=0;exitDy=0;entryX=-0.004;entryY=0.872;entryDx=0;entryDy=0;entryPerimeter=0;endArrow=none;endFill=0;" edge="1" parent="1" source="CRdkFB1iniQtbO10i1_w-28" target="jXtiLCyHxi5xTeZDXRqE-7">
          <mxGeometry relative="1" as="geometry" />
        </mxCell>
      </root>
    </mxGraphModel>
  </diagram>
</mxfile>
